<svg width="24" height="24" viewBox="0 0 24 24" fill="none" xmlns="http://www.w3.org/2000/svg">
<path fill-rule="evenodd" clip-rule="evenodd" d="M9.12196 7.27739C9.12196 5.68803 10.4104 4.39961 11.9997 4.39961C13.5891 4.39961 14.8775 5.68803 14.8775 7.27739C14.8775 8.86674 13.5891 10.1552 11.9997 10.1552C10.4104 10.1552 9.12196 8.86674 9.12196 7.27739ZM11.9997 2.59961C9.41627 2.59961 7.32196 4.69392 7.32196 7.27739C7.32196 9.86085 9.41627 11.9552 11.9997 11.9552C14.5832 11.9552 16.6775 9.86085 16.6775 7.27739C16.6775 4.69392 14.5832 2.59961 11.9997 2.59961ZM11.9998 13.1006C14.932 13.1006 17.8052 13.9222 20.3092 15.4419C20.5025 15.559 20.7366 15.7008 20.9328 15.9261C21.0988 16.1167 21.2347 16.3588 21.3111 16.5996C21.4016 16.8852 21.4008 17.1755 21.4001 17.4184L21.4 18.9299C21.4 19.1842 21.4 19.4263 21.3833 19.6303C21.3652 19.8527 21.3228 20.1078 21.1929 20.3628C21.0107 20.7203 20.72 21.0109 20.3625 21.1931C20.1076 21.323 19.8525 21.3654 19.63 21.3836C19.4261 21.4002 19.184 21.4002 18.9297 21.4002H5.0702C4.81588 21.4002 4.57383 21.4002 4.36987 21.3836C4.14746 21.3654 3.89235 21.323 3.63738 21.1931C3.27987 21.0109 2.9892 20.7203 2.80705 20.3628C2.67713 20.1078 2.63474 19.8527 2.61657 19.6303C2.59991 19.4263 2.59993 19.1843 2.59996 18.9299L2.59984 17.4182C2.59912 17.1753 2.59827 16.885 2.68882 16.5994C2.76519 16.3586 2.90117 16.1165 3.06709 15.9259C3.26336 15.7006 3.49744 15.5588 3.69074 15.4417C6.19471 13.9222 9.06777 13.1006 11.9998 13.1006ZM4.42208 17.1072C6.61011 15.71 9.209 14.9001 11.9998 14.9001C14.7907 14.9001 17.3897 15.7101 19.5778 17.1074C19.5816 17.1098 19.5999 17.1254 19.5999 17.1647V19.4997C19.5999 19.555 19.5551 19.5997 19.4999 19.5997H4.49992C4.44469 19.5997 4.39992 19.555 4.39992 19.4997V17.1646C4.39992 17.1252 4.41826 17.1097 4.42208 17.1072Z" fill="#505866"/>
</svg>
